PathFileType	4	(X/Y/Z)	Kaydara																																																																																																																									
DataRate	CameraRate	NumFrames	NumMarkers	Units	OrigDataRate	OrigDataStartFrame	OrigNumFrames																																																																																																																					
30	30	6	41	mm	30	131	349																																																																																																																					
Frame#	Time	EMLA_LFHD			EMLA_RFHD			EMLA_LBHD			EMLA_RBHD			EMLA_LFTShould			EMLA_RFTShould			EMLA_LRRShould			EMLA_RRRShould			EMLA_T10			EMLA_STRN			EMLA_TRUN			EMLA_LSHO			EMLA_LUPA			EMLA_LELB			EMLA_LFRM			EMLA_LWRA			EMLA_LWRB			EMLA_LFIN			EMLA_RSHO			EMLA_RUPA			EMLA_RELB			EMLA_RFRM			EMLA_RWRA			EMLA_RWRB			EMLA_RFIN			EMLA_LFWT			EMLA_RFWT			EMLA_LBWT			EMLA_RBWT			EMLA_LTHI			EMLA_LKNE			EMLA_LSHN			EMLA_LANK			EMLA_LHEE			EMLA_LTOE			EMLA_RTHI			EMLA_RKNE			EMLA_RSHN			EMLA_RANK			EMLA_RHEE			EMLA_RTOE		
		X1	Y1	Z1	X2	Y2	Z2	X3	Y3	Z3	X4	Y4	Z4	X5	Y5	Z5	X6	Y6	Z6	X7	Y7	Z7	X8	Y8	Z8	X9	Y9	Z9	X10	Y10	Z10	X11	Y11	Z11	X12	Y12	Z12	X13	Y13	Z13	X14	Y14	Z14	X15	Y15	Z15	X16	Y16	Z16	X17	Y17	Z17	X18	Y18	Z18	X19	Y19	Z19	X20	Y20	Z20	X21	Y21	Z21	X22	Y22	Z22	X23	Y23	Z23	X24	Y24	Z24	X25	Y25	Z25	X26	Y26	Z26	X27	Y27	Z27	X28	Y28	Z28	X29	Y29	Z29	X30	Y30	Z30	X31	Y31	Z31	X32	Y32	Z32	X33	Y33	Z33	X34	Y34	Z34	X35	Y35	Z35	X36	Y36	Z36	X37	Y37	Z37	X38	Y38	Z38	X39	Y39	Z39	X40	Y40	Z40	X41	Y41	Z41
																																																																																																																												
131	4.343	350.10124	1598.43521	-898.84216	182.37484	1613.47885	-928.28102	389.15329	1598.50739	-1044.14024	199.1292	1619.05304	-1080.04875	348.88363	1378.75275	-972.54051	200.48363	1373.92044	-982.48962	356.83514	1432.23557	-1118.55721	200.62414	1428.83774	-1129.77417	291.0078	1260.76973	-1176.99905	270.00391	1309.55078	-942.8476	261.51134	1205.59555	-929.78729	477.19017	1402.38678	-1013.83827	541.26774	1221.50154	-1006.27739	565.42042	1081.20026	-986.71165	555.93998	949.6241	-939.74174	459.01505	848.46565	-819.4558	514.98852	804.57283	-868.90633	506.12507	795.97885	-799.61159	84.78378	1412.9744	-1058.20763	18.32552	1221.46675	-1065.20187	-5.38806	1081.3485	-1085.49095	-11.77392	978.03795	-1083.68553	32.6808	823.95142	-958.60176	-7.39716	801.40297	-1033.55949	-26.82851	776.67007	-976.18317	369.71504	977.0533	-950.27702	135.29617	972.11594	-976.80794	356.22078	991.1895	-1155.54199	179.72717	986.35582	-1161.58852	389.91528	710.99739	-1138.16368	379.58637	504.55414	-1101.34033	340.40192	323.4502	-1098.24585	330.55496	151.05559	-1177.17209	260.14097	79.54236	-1242.29149	290.96184	61.94776	-1045.39177	124.477	669.9894	-1074.58397	87.28038	510.77328	-937.05635	134.36584	286.04446	-941.21704	126.83948	135.77689	-1043.6721	199.87221	88.52227	-1082.5872	98.7974	67.02253	-911.05263
132	4.377	349.36817	1598.42468	-886.38046	181.43057	1612.05139	-914.96071	387.74681	1597.81235	-1032.01744	197.37165	1616.62796	-1066.86737	349.12891	1377.49298	-960.1284	200.576	1372.435	-968.20236	355.18627	1431.38519	-1106.1412	198.77319	1427.72507	-1115.3537	288.91666	1259.9157	-1164.1996	270.52353	1308.07785	-929.36577	262.52506	1204.01993	-916.67534	477.23515	1401.28433	-1003.4536	540.34283	1220.14168	-996.88499	563.45486	1079.22592	-976.6629	554.21143	947.75505	-930.04974	458.63071	846.37688	-808.69423	513.73173	802.04102	-858.7748	506.15551	793.86665	-789.67438	83.88358	1410.98892	-1042.70409	18.06049	1219.18892	-1050.76843	-5.06298	1079.16489	-1072.31628	-10.8823	975.69664	-1071.18134	37.05171	821.01891	-948.12859	-4.12538	798.69308	-1022.50702	-22.29432	773.28674	-965.12131	369.96983	975.7132	-938.87108	135.63544	971.64688	-962.74529	353.94638	989.78592	-1143.91991	177.47974	984.90982	-1147.76215	387.70245	710.99838	-1129.32968	378.79494	504.1795	-1094.61029	339.86809	322.71095	-1093.96011	330.02586	151.6323	-1175.56473	259.62072	80.83065	-1241.86249	290.70112	61.85036	-1045.43243	124.48205	669.42131	-1055.49973	91.8673	511.54442	-913.85956	138.81047	287.07315	-899.90425	126.55003	128.1627	-987.35313	197.31955	78.92721	-1026.18393	107.01095	66.93139	-847.70538
133	4.41	348.14766	1598.3371	-873.59306	179.74895	1610.41718	-900.81787	385.39421	1597.20795	-1019.55544	194.54922	1614.05396	-1053.00453	348.91903	1376.2822	-947.5145	200.35927	1370.79254	-953.56056	352.82295	1430.65994	-1093.45314	196.19303	1426.49384	-1100.38254	286.16373	1259.13101	-1151.00914	270.90229	1306.57913	-915.7515	263.35007	1202.51076	-903.18726	476.66557	1400.28168	-992.69493	537.62291	1218.36868	-986.92963	558.95855	1076.93253	-966.72241	551.04126	945.27321	-922.60307	458.59463	840.49278	-802.21329	512.90932	797.70767	-853.69476	506.70425	788.13431	-784.65736	82.3778	1408.85986	-1026.32095	17.65657	1216.5535	-1035.08911	-4.73812	1076.70425	-1058.03482	-9.59981	973.10661	-1058.14255	42.09859	817.26509	-938.04764	-0.43327	795.6163	-1011.80183	-17.05832	769.19945	-954.51828	370.39063	974.37241	-927.20627	135.77362	970.91942	-947.90329	350.93193	988.63602	-1131.8158	174.60306	983.91151	-1132.71805	385.47222	711.10527	-1120.23781	377.83318	503.88142	-1087.68044	339.00795	322.11815	-1089.40964	329.43569	152.45593	-1173.9534	258.95336	82.39504	-1241.30173	290.79926	61.95423	-1045.11612	124.17668	668.66493	-1037.96486	96.77054	511.10748	-893.57285	142.79915	288.65513	-861.44592	125.47246	122.47202	-933.06717	194.321	71.03402	-970.57785	113.57439	68.42417	-787.05444
134	4.443	346.35529	1598.32611	-860.58365	177.29441	1608.5228	-886.04202	382.14867	1596.82266	-1006.94595	190.73929	1611.40503	-1038.4111	348.15224	1375.12344	-934.5401	199.53659	1369.05334	-938.14323	349.60922	1429.79309	-1080.39474	192.86146	1425.0174	-1084.8542	282.63081	1258.14789	-1137.30118	271.40476	1305.112	-902.11143	263.89896	1200.94185	-889.01535	475.47413	1399.07394	-981.65215	533.74207	1216.37787	-976.483	552.77859	1074.328	-957.18285	546.83144	942.11792	-917.48337	458.00385	831.81831	-798.66096	511.87366	791.86172	-852.78839	507.1624	779.61029	-784.06364	80.22921	1406.46576	-1008.96667	16.97537	1213.81844	-1018.63129	-4.22452	1073.83324	-1042.99133	-8.27741	970.33943	-1044.65485	47.18434	813.12828	-927.81708	3.53255	792.21558	-1001.01128	-11.65396	764.64043	-943.98636	371.1541	972.97897	-914.93851	136.2711	969.54697	-931.35185	347.24617	987.668	-1119.13528	170.8737	983.01025	-1117.16537	383.30578	711.7244	-1111.05942	377.14027	503.91426	-1080.96512	338.81645	322.09034	-1085.29762	328.91975	153.71262	-1172.55302	258.21463	84.435	-1240.55206	290.86651	61.89617	-1044.91188	123.56343	667.16988	-1021.24413	101.09732	508.93959	-876.49361	145.97491	290.83843	-826.30737	124.10105	118.48359	-881.91917	190.73793	64.81187	-917.41394	119.25355	72.97836	-730.07454
135	4.477	343.93387	1598.39966	-847.09236	174.32518	1606.3208	-870.58167	378.00488	1596.61453	-993.83408	186.07145	1608.5585	-1023.23486	346.87431	1373.84323	-920.95917	198.09265	1367.267	-921.99623	345.76988	1428.86871	-1066.59355	188.87068	1423.44788	-1068.43956	278.31636	1256.95023	-1122.67944	270.71232	1303.48557	-887.21405	264.03997	1199.31023	-874.18213	473.71887	1397.27158	-970.05997	529.21146	1213.66676	-966.44142	545.89706	1071.26831	-948.08624	541.76464	938.63297	-913.1469	456.5659	821.51192	-798.25569	510.56828	785.26825	-854.86961	506.81355	769.43985	-786.8325	77.33747	1403.88306	-990.72609	15.89751	1210.55946	-1001.6861	-3.71842	1070.569	-1026.98738	-6.9038	967.25296	-1030.69687	51.89455	808.78014	-917.0639	7.30795	788.69942	-990.16113	-6.56807	759.85321	-933.23303	371.46797	971.76888	-901.93237	136.49323	967.25304	-913.72063	343.17558	986.71104	-1105.71251	167.00235	981.33522	-1099.99634	380.8786	712.66655	-1101.61018	376.81076	504.30573	-1074.2334	338.95073	321.92184	-1081.54205	328.7109	155.40922	-1171.10435	257.90701	87.08411	-1239.76692	291.4032	61.80161	-1044.52759	122.6216	665.04791	-1005.82375	104.23216	505.36781	-861.25839	148.93874	292.96959	-795.709	122.70398	117.28951	-834.78134	187.37473	60.72589	-869.05464	125.46551	80.17295	-679.25758
136	4.51	340.81741	1598.72818	-833.11035	171.54951	1603.73718	-854.76486	373.02032	1596.25977	-980.19249	180.60663	1605.24673	-1007.36931	344.89872	1372.1199	-906.45218	196.01688	1365.29633	-904.85069	341.3303	1427.84576	-1051.75011	184.21669	1421.74652	-1051.04271	273.34988	1255.76111	-1107.02835	269.55704	1301.64337	-871.38077	263.34845	1197.49718	-858.37143	471.26526	1394.98932	-957.49794	524.45057	1210.49843	-956.56242	539.42486	1067.96036	-939.4828	536.88519	934.90158	-909.73465	454.37489	810.77019	-800.10696	508.89225	778.62106	-858.68835	505.38582	758.974	-791.6954	73.82585	1401.38702	-971.72104	14.18854	1207.55409	-984.0332	-3.78024	1067.41798	-1010.58167	-5.87003	964.25613	-1015.82367	55.57813	804.85214	-904.85703	10.61185	785.24704	-978.30521	-2.30486	755.28824	-921.80908	371.48556	970.37125	-888.61794	136.61459	964.26193	-895.02754	338.87787	986.09085	-1091.39267	162.94758	979.78432	-1081.87988	378.24047	713.6673	-1091.54495	376.48357	504.83963	-1066.92223	338.71433	322.6207	-1076.3855	328.06183	157.34303	-1169.40773	256.83605	90.09974	-1238.70361	291.39395	61.86075	-1044.40514	121.80384	662.46323	-991.4489	105.74091	500.30209	-847.83241	152.28932	294.99996	-769.05914	122.12282	117.26115	-793.64471	184.10982	57.96308	-827.05734	132.60138	89.45992	-635.60738
